<?xml version="1.0" encoding="iso-8859-1"?>
<!-- Generator: Adobe Illustrator 18.0.0, SVG Export Plug-In . SVG Version: 6.00 Build 0)  -->
<!DOCTYPE svg PUBLIC "-//W3C//DTD SVG 1.1//EN" "http://www.w3.org/Graphics/SVG/1.1/DTD/svg11.dtd">
<svg version="1.1" id="Capa_1" xmlns="http://www.w3.org/2000/svg" xmlns:xlink="http://www.w3.org/1999/xlink" x="0px" y="0px"
	 viewBox="0 0 60 60" style="enable-background:new 0 0 60 60;" xml:space="preserve">
<g>
	<path d="M27.885,5.007C20.06,5.915,12.843,10.774,9.05,17.688c-0.266,0.484-0.088,1.092,0.396,1.358
		c0.153,0.083,0.318,0.123,0.48,0.123c0.354,0,0.696-0.188,0.878-0.519C14.29,12.294,20.923,7.828,28.115,6.993
		c0.549-0.063,0.941-0.56,0.878-1.108C28.93,5.337,28.443,4.941,27.885,5.007z"/>
	<path d="M59.948,58.684L55.105,44.15C57.654,39.703,59,34.647,59,29.5C59,13.233,45.767,0,29.5,0S0,13.233,0,29.5
		S13.234,59,29.5,59c4.641,0,9.257-1.108,13.378-3.208l15.867,4.176C58.83,59.989,58.915,60,59,60c0.272,0,0.538-0.112,0.729-0.316
		C59.981,59.416,60.065,59.032,59.948,58.684z M43.015,53.759c-0.008-0.002-0.017-0.001-0.026-0.003
		c-0.005-0.001-0.008-0.004-0.012-0.005l-7.76-1.727c-0.53-0.115-1.072,0.22-1.193,0.759c-0.119,0.539,0.221,1.073,0.76,1.193
		l4.849,1.079C36.42,56.327,32.969,57,29.5,57C14.337,57,2,44.664,2,29.5S14.337,2,29.5,2S57,14.336,57,29.5
		c0,4.942-1.33,9.792-3.847,14.026c-0.148,0.25-0.182,0.551-0.089,0.827l4.402,13.209L43.015,53.759z"/>
</g>
<g>
</g>
<g>
</g>
<g>
</g>
<g>
</g>
<g>
</g>
<g>
</g>
<g>
</g>
<g>
</g>
<g>
</g>
<g>
</g>
<g>
</g>
<g>
</g>
<g>
</g>
<g>
</g>
<g>
</g>
</svg>
