<svg xmlns="http://www.w3.org/2000/svg" xmlns:xlink="http://www.w3.org/1999/xlink" viewBox="0 0 412.93 416.83"><defs><style>.cls-1,.cls-23,.cls-7{fill:#92e3a9;}.cls-1,.cls-15,.cls-19,.cls-20,.cls-4,.cls-5,.cls-6{stroke:#263238;}.cls-1,.cls-14,.cls-15,.cls-19,.cls-20,.cls-4,.cls-5,.cls-6{stroke-linecap:round;stroke-linejoin:round;}.cls-2{fill:#f1eee6;}.cls-3{fill:#7d95a0;opacity:0.7;}.cls-14,.cls-4,.cls-5{fill:none;}.cls-5{stroke-width:2px;}.cls-22,.cls-6{fill:#fff;}.cls-8{clip-path:url(#clip-path);}.cls-17,.cls-9{fill-opacity:0.7;}.cls-9{opacity:0.3;}.cls-10{clip-path:url(#clip-path-2);}.cls-11{clip-path:url(#clip-path-3);}.cls-12{fill:#263238;}.cls-13{opacity:0.2;}.cls-14{stroke:#fff;}.cls-15{fill:#757575;}.cls-16{clip-path:url(#clip-path-4);}.cls-17{opacity:0.5;}.cls-18{clip-path:url(#clip-path-5);}.cls-19{fill:#999;}.cls-20{fill:#bfbfbf;}.cls-21{clip-path:url(#clip-path-6);}.cls-23{opacity:0.4;}</style><clipPath id="clip-path"><path class="cls-1" d="M270.75,195.89c-3.07-5.07-17.79-5-19.13-2.73,0,0,7.3,23.58,15.43,21.13S270.75,195.89,270.75,195.89Z"/></clipPath><clipPath id="clip-path-2"><path class="cls-1" d="M253.18,207.89a7.22,7.22,0,0,0-1.56,4.44c0,2.2,4.2,46.14,17.15,61.43,2.71,3.21,5.81,5.16,9.34,5.2,11,.12,16.27-8.58,23.25-28.75q1.31-3.77,2.7-8.09c6.79-20.82,15.12-64.25,15.12-64.25S304.39,181.3,295.62,190c-3.83,3.8-7.83,14.58-10.38,22.5-1.25,3.9-2.16,7.09-2.54,8.44l-.19.69a19.87,19.87,0,0,0-1.55-3.94l0,0a.47.47,0,0,1-.05-.1,47.82,47.82,0,0,0-6.95-9.56l-3.19-12.11s-1.13,2.21-6.24,3-12.89-5.72-12.89-5.72Z"/></clipPath><clipPath id="clip-path-3"><path class="cls-1" d="M377.46,307.13s1.87-14.72,3-19.53c5.11-21.63,23.15-71.77,20.24-86.6-3-15.25-21.27-28.58-50.77-30.05-27.35-1.37-49.91,8.33-55.3,19.61-5.15,10.76-4.94,85-3.63,118.53h75.15A37.2,37.2,0,0,0,377.46,307.13Z"/></clipPath><clipPath id="clip-path-4"><rect class="cls-1" x="251.62" y="139.64" width="51.67" height="25.59" transform="translate(42.88 365.01) rotate(-70.97)"/></clipPath><clipPath id="clip-path-5"><rect class="cls-1" x="230.56" y="61.52" width="51.67" height="25.59" transform="translate(262.36 -192.57) rotate(75.12)"/></clipPath><clipPath id="clip-path-6"><path class="cls-1" d="M310.69,184c-1.4-2.54-5.4-1.32-10.07,6s-6.57,15.88-5.44,19,16.22,6.89,16.22,6.89l3.11-7.89Z"/></clipPath></defs><g id="Layer_2" data-name="Layer 2"><g id="Hand"><path class="cls-2" d="M54.19,52.31l.56-.51c51.57-46.43,120.07-48.53,170,1.46,26,26.05,72.18,21.07,105.22,30.49,113.92,32.49,94.23,187.05,37.95,261.77-50.78,67.42-160.8,82.66-234.73,49.48-65-29.15-110.7-94.27-127-162.37q-2.46-10.24-4-20.67C-6.38,154,10.07,92.43,54.19,52.31Z"/><path class="cls-3" d="M54.19,52.31l.56-.51c51.57-46.43,120.07-48.53,170,1.46,26,26.05,72.18,21.07,105.22,30.49,113.92,32.49,94.23,187.05,37.95,261.77-50.78,67.42-160.8,82.66-234.73,49.48-65-29.15-110.7-94.27-127-162.37q-2.46-10.24-4-20.67C-6.38,154,10.07,92.43,54.19,52.31Z"/><path class="cls-4" d="M236,360a45.7,45.7,0,0,1-89,2.64"/><path class="cls-4" d="M235.39,339.39a45.45,45.45,0,0,1,1.35,15.53"/><path class="cls-4" d="M161.81,316.1a45.69,45.69,0,0,1,71,16.06"/><polyline class="cls-4" points="149.13 308.89 147.86 305.49 159.91 314.65"/><path class="cls-4" d="M146.4,342.11a45.58,45.58,0,0,1,8.24-18.46l-4-10.75"/><path class="cls-4" d="M145.54,353a47.07,47.07,0,0,1,.11-5.56"/><path class="cls-4" d="M193.37,328.31a23,23,0,1,1-8.12.49"/><path class="cls-4" d="M187.73,376.45a25.49,25.49,0,0,1-22.34-28.27"/><path class="cls-4" d="M215.08,358.54a25.52,25.52,0,0,1-19.41,17.6"/><path class="cls-4" d="M167,341.73a25.48,25.48,0,0,1,49,12.38"/><line class="cls-5" x1="205.48" y1="341.18" x2="205.76" y2="340.85"/><line class="cls-5" x1="201.64" y1="345.79" x2="203.56" y2="343.49"/><polyline class="cls-5" points="176.94 350.3 187.41 362.82 199.96 347.8"/><rect class="cls-6" x="208.79" y="106.84" width="202.25" height="202.25" rx="46.19"/><path class="cls-7" d="M270.75,195.89c-3.07-5.07-17.79-5-19.13-2.73,0,0,7.3,23.58,15.43,21.13S270.75,195.89,270.75,195.89Z"/><g class="cls-8"><path class="cls-9" d="M270.75,195.89c-3.07-5.07-17.79-5-19.13-2.73,0,0,7.3,23.58,15.43,21.13S270.75,195.89,270.75,195.89Z"/></g><path class="cls-4" d="M270.75,195.89c-3.07-5.07-17.79-5-19.13-2.73,0,0,7.3,23.58,15.43,21.13S270.75,195.89,270.75,195.89Z"/><path class="cls-7" d="M253.18,207.89a7.22,7.22,0,0,0-1.56,4.44c0,2.2,4.2,46.14,17.15,61.43,2.71,3.21,5.81,5.16,9.34,5.2,11,.12,16.27-8.58,23.25-28.75q1.31-3.77,2.7-8.09c6.79-20.82,15.12-64.25,15.12-64.25S304.39,181.3,295.62,190c-3.83,3.8-7.83,14.58-10.38,22.5-1.25,3.9-2.16,7.09-2.54,8.44l-.19.69a19.87,19.87,0,0,0-1.55-3.94l0,0a.47.47,0,0,1-.05-.1,47.82,47.82,0,0,0-6.95-9.56l-3.19-12.11s-1.13,2.21-6.24,3-12.89-5.72-12.89-5.72Z"/><g class="cls-10"><path class="cls-9" d="M268.77,273.76c2.71,3.21,5.81,5.16,9.34,5.2,11,.12,16.27-8.58,23.25-28.75l-.15-46.88a34.79,34.79,0,0,0-16,9.17c-1.25,3.9-2.16,7.09-2.54,8.44,3.08,6.42,8.46,21.18,2.29,36.91C281,268.05,274.44,272.2,268.77,273.76Z"/></g><path class="cls-4" d="M253.18,207.89a7.22,7.22,0,0,0-1.56,4.44c0,2.2,4.2,46.14,17.15,61.43,2.71,3.21,5.81,5.16,9.34,5.2,11,.12,16.27-8.58,23.25-28.75q1.31-3.77,2.7-8.09c6.79-20.82,15.12-64.25,15.12-64.25S304.39,181.3,295.62,190c-3.83,3.8-7.83,14.58-10.38,22.5-1.25,3.9-2.16,7.09-2.54,8.44l-.19.69a19.87,19.87,0,0,0-1.55-3.94l0,0a.47.47,0,0,1-.05-.1,47.82,47.82,0,0,0-6.95-9.56l-3.19-12.11s-1.13,2.21-6.24,3-12.89-5.72-12.89-5.72Z"/><path class="cls-4" d="M288,235.94c.79,4.12.82,8.58-1.08,12.41"/><path class="cls-4" d="M282.51,221.63a47.19,47.19,0,0,1,4.95,11.77"/><path class="cls-4" d="M289.5,226.81s-1.54-4.24-5.71-5.18"/><path class="cls-4" d="M268.22,211.31a14.61,14.61,0,0,0,2.79-2"/><path class="cls-4" d="M253.18,207.89c3.26,3.49,8.35,5.77,13.1,4.25"/><path class="cls-1" d="M280.88,217.57l.06.09a.47.47,0,0,1-.05-.1Z"/><path class="cls-7" d="M377.46,307.13s1.87-14.72,3-19.53c5.11-21.63,23.15-71.77,20.24-86.6-3-15.25-21.27-28.58-50.77-30.05-27.35-1.37-49.91,8.33-55.3,19.61-5.15,10.76-4.94,85-3.63,118.53h75.15A37.2,37.2,0,0,0,377.46,307.13Z"/><g class="cls-11"><path class="cls-9" d="M371.59,217.67C357.42,237.09,342,266.16,342,266.16l-42.21-52.6s9.67,66.81,14.94,74,5,10.56,5,10.56,13.38,14.4,23.41,12.45c8.51-1.66,39.12-35.82,48.66-75.41Z"/></g><path class="cls-4" d="M377.46,307.13s1.87-14.72,3-19.53c5.11-21.63,23.15-71.77,20.24-86.6-3-15.25-21.27-28.58-50.77-30.05-27.35-1.37-49.91,8.33-55.3,19.61-5.15,10.76-4.94,85-3.63,118.53h75.15A37.2,37.2,0,0,0,377.46,307.13Z"/><path class="cls-6" d="M361.86,173.92s-14.71,6.31-30.63,1.08a29.08,29.08,0,0,0,2.06-9.09c0-2.06-.51-3.91-2.06-4.79,0,0,.72-.79,1.94-2h0c6-6.14,24.34-23.4,30.3-13.11C363.48,146,357.24,146.56,361.86,173.92Z"/><path class="cls-12" d="M345.23,154.86a16.59,16.59,0,0,1-11.94,11c0-2.06-.51-3.91-2.06-4.79,0,0,.72-.79,1.94-2h0C339,156.79,345.23,154.86,345.23,154.86Z"/><path class="cls-6" d="M367.62,131.49c6.32-25.18-7.29-33.79-15.87-37.09-13.73-5.29-31.07.72-35.13,14.71s-.4,17.17-.59,22.89c-.13,4-2.79,6,.14,16.06,1.94,6.65,5.53,14.27,9.72,14.51,11.35.66,22.09-5.8,21.5-8.83"/><path class="cls-4" d="M332,119.15s5.08-1.75,7.79,3.79"/><path class="cls-4" d="M314.7,118.33s3.78-3.21,7.56,1.33"/><ellipse class="cls-12" cx="334.24" cy="129.81" rx="1.26" ry="2.12"/><path class="cls-12" d="M318.48,128.65c0,1.17.56,2.12,1.26,2.12s1.26-1,1.26-2.12-.57-2.12-1.26-2.12S318.48,127.48,318.48,128.65Z"/><path class="cls-6" d="M322.26,123.8s.79,5.83.44,7-4.3,4.7-4.45,6.29,3.3,3.18,3.3,3.18"/><path class="cls-12" d="M319.74,143.58s7.88,2,14.5,0c0,0-3.12,9.77-9.29,8.78-4.08-.66-3-7.06-3-7.06Z"/><path class="cls-12" d="M341.46,105a10.41,10.41,0,0,0-7.79-1.18c-4.53,1-5.25,10.58-5.25,10.58a9.55,9.55,0,0,1-2.85-4.78l-1.42,4.09-3.78-3.56-1.26,4.25-1.5-3.07L314.7,117s-4.37-5.63-3.69-10c1.84-11.87,11.26-21.62,31-20.58,9.92.53,13.62,7.33,13.62,7.33s9.69-1.31,14,3.72c14.64,17.13,5.46,35.73-8.45,53.36l-4.77-16.8-4.62-.53a46.11,46.11,0,0,0,0-5.17,25.85,25.85,0,0,0-1.71-6.5l-1.71.77.72-3.22-3.91,2s1.65-13.23,0-15.47A2.72,2.72,0,0,0,341.46,105Z"/><path class="cls-6" d="M353.47,135.89s4.61-8.6,9.44-6.5,1.47,12.38-2.73,15.74-6.71,0-6.71,0"/><g class="cls-13"><path class="cls-14" d="M345.64,101.5a8.45,8.45,0,0,0-7.37-5.19c-5.65-.37-9.71,5.75-9.84,10"/><path class="cls-14" d="M349.46,101.31s3.87-3,6.12,0c3.8,5,.65,17.13.65,17.13"/><path class="cls-14" d="M354.73,97.77s4-2.47,7.48,2.3,3.07,16.37,3.07,16.37"/><path class="cls-14" d="M366.14,97.13s7,2.94,7.37,17"/><path class="cls-14" d="M349.93,97.77s-3.92-6.65-15.54-4.43S321,107.44,321,107.44"/><path class="cls-14" d="M352.82,95.75s-4.68-6.49-18.89-5.19S314,104.29,315.44,110.22"/></g><path class="cls-15" d="M236.32,179s16.91-13,24.28-14.34,32.73,4.22,32.73,4.22v30s-15.86,1.74-23,7-31.64,6-31.64,6Z"/><path class="cls-6" d="M252.19,169.69a45.71,45.71,0,0,1,1-5.93c.6-2.11,4.68-1.89,5.61-1.14a11.34,11.34,0,0,1,1.81,2s-1.42.42-1.81.55S258,173,252.19,169.69Z"/><rect class="cls-7" x="251.62" y="139.64" width="51.67" height="25.59" transform="translate(42.88 365.01) rotate(-70.97)"/><g class="cls-16"><path class="cls-17" d="M256.94,172.68,281.12,181,298,132.18l-24.18-8.34Zm38.49-39.26-15.54,45.06-20.41-7L275,126.38Z"/><path class="cls-17" d="M277.38,130.2l-2.08,6a1.31,1.31,0,0,1-1.65.8h0a1.3,1.3,0,0,1-.8-1.65l2.08-6a1.31,1.31,0,0,1,1.65-.8h0A1.3,1.3,0,0,1,277.38,130.2Z"/><path class="cls-17" d="M282.06,169.47l-2.08,6a1.31,1.31,0,0,1-1.65.8h0a1.31,1.31,0,0,1-.8-1.65l2.08-6a1.31,1.31,0,0,1,1.65-.8h0A1.3,1.3,0,0,1,282.06,169.47Z"/><path class="cls-17" d="M269.88,149.82a8,8,0,1,0,10.19-5A8,8,0,0,0,269.88,149.82Zm11.79,3.47.59.21-.36,1.05-.6-.2a1.9,1.9,0,0,1-2.5.7l-.56-.2.42-1.22.65.22c.58.21.88,0,1-.39s0-.74-.56-.94-1.09-.11-2.07.52a3.06,3.06,0,0,1-2.92.58,1.89,1.89,0,0,1-1.53-2.05l-.61-.21.36-1.06.61.21a1.88,1.88,0,0,1,2.48-.69l.26.09-.42,1.22-.34-.12c-.59-.2-.89,0-1,.37s0,.72.59.92,1.07.11,2.06-.52a3.09,3.09,0,0,1,2.92-.58A1.92,1.92,0,0,1,281.67,153.29Z"/></g><rect class="cls-4" x="251.62" y="139.64" width="51.67" height="25.59" transform="translate(42.88 365.01) rotate(-70.97)"/><rect class="cls-7" x="230.56" y="61.52" width="51.67" height="25.59" transform="translate(262.36 -192.57) rotate(75.12)"/><g class="cls-18"><path class="cls-17" d="M262.13,46.06,237.4,52.63l13.27,49.94L275.4,96Zm-10,54.06L239.85,54.05l20.86-5.54L273,94.57Z"/><path class="cls-17" d="M268.87,92.72l-1.64-6.17a1.29,1.29,0,0,1,.92-1.58h0a1.3,1.3,0,0,1,1.58.92l1.64,6.17a1.3,1.3,0,0,1-.92,1.58h0A1.29,1.29,0,0,1,268.87,92.72Z"/><path class="cls-17" d="M243.07,62.74l-1.64-6.17a1.29,1.29,0,0,1,.92-1.58h0a1.29,1.29,0,0,1,1.58.92l1.64,6.16a1.29,1.29,0,0,1-.92,1.58h0A1.28,1.28,0,0,1,243.07,62.74Z"/><path class="cls-17" d="M264.14,72.25a8,8,0,1,0-5.68,9.81A8,8,0,0,0,264.14,72.25ZM252.42,76l-.61.16L251.52,75l.62-.16c-.06-1,.54-1.67,1.68-2l.57-.15.33,1.25-.65.17c-.6.16-.75.48-.64.9s.4.63,1,.47,1-.51,1.43-1.59c.56-1.3,1.13-1.85,2.09-2.11a1.89,1.89,0,0,1,2.42.85l.62-.17.29,1.08-.62.17c0,1-.54,1.65-1.68,2l-.26.07-.33-1.25.35-.09c.59-.16.76-.46.65-.88s-.41-.6-1-.44-1,.51-1.43,1.59c-.58,1.3-1.14,1.85-2.1,2.1A1.9,1.9,0,0,1,252.42,76Z"/></g><rect class="cls-4" x="230.56" y="61.52" width="51.67" height="25.59" transform="translate(262.36 -192.57) rotate(75.12)"/><path class="cls-19" d="M236.32,179s24.53-8.27,31.12-9.46,25.89-.66,25.89-.66v30s-20.14,6.11-23.25,8.55-31.38,4.45-31.38,4.45Z"/><path class="cls-4" d="M269.79,182.57c-1.29,7-.36,16.28-5,21.92"/><path class="cls-4" d="M271.93,172.05q-.75,3.4-1.42,6.82"/><path class="cls-20" d="M296.34,72.41a5.5,5.5,0,1,1-5.49-5.5A5.49,5.49,0,0,1,296.34,72.41Z"/><path class="cls-17" d="M293.92,75.83a4.6,4.6,0,1,0-6.49-.35A4.59,4.59,0,0,0,293.92,75.83Zm-4.94-5-.24-.27.47-.43.25.27a1.08,1.08,0,0,1,1.44.35l.23.25-.55.5-.26-.29c-.24-.27-.44-.26-.63-.09s-.21.36,0,.63.52.36,1.19.31a1.73,1.73,0,0,1,1.62.53,1.08,1.08,0,0,1,.2,1.45l.24.28-.47.42-.25-.27a1.09,1.09,0,0,1-1.44-.35l-.1-.11.55-.5.14.16c.24.26.43.27.62.1s.2-.36,0-.63-.51-.35-1.18-.31a1.77,1.77,0,0,1-1.62-.52A1.09,1.09,0,0,1,289,70.8Z"/><path class="cls-20" d="M270.32,29a5.5,5.5,0,1,1-5.49-5.49A5.49,5.49,0,0,1,270.32,29Z"/><path class="cls-17" d="M267.9,32.42a4.6,4.6,0,1,0-6.5-.36A4.61,4.61,0,0,0,267.9,32.42Zm-4.94-5-.24-.27.47-.43.24.27a1.08,1.08,0,0,1,1.45.35l.23.25-.55.49-.26-.29c-.24-.26-.44-.25-.63-.09s-.21.37,0,.63.52.36,1.18.32a1.77,1.77,0,0,1,1.63.52,1.1,1.1,0,0,1,.2,1.46l.24.27-.47.43-.25-.28a1.08,1.08,0,0,1-1.44-.34l-.1-.12.55-.49.14.15c.23.27.43.27.62.11s.2-.36,0-.63-.51-.35-1.18-.32a1.74,1.74,0,0,1-1.63-.52A1.08,1.08,0,0,1,263,27.39Z"/><path class="cls-20" d="M244.82,135.15a5.49,5.49,0,1,1,6.64-4A5.5,5.5,0,0,1,244.82,135.15Z"/><path class="cls-17" d="M242.07,132a4.6,4.6,0,1,0,1.89-6.22A4.6,4.6,0,0,0,242.07,132Zm6.06-3.6.32-.17.3.56-.32.18a1.08,1.08,0,0,1-.68,1.32l-.3.16-.35-.65.35-.19c.31-.17.35-.36.23-.58s-.3-.3-.61-.13-.48.41-.59,1.07a1.75,1.75,0,0,1-.9,1.45,1.09,1.09,0,0,1-1.46-.15l-.32.17-.31-.57.33-.17a1.08,1.08,0,0,1,.68-1.31l.14-.08.35.66-.19.09c-.31.17-.36.36-.25.58s.31.28.62.11.47-.41.59-1.07a1.76,1.76,0,0,1,.89-1.45A1.09,1.09,0,0,1,248.13,128.38Z"/><path class="cls-7" d="M310.69,184c-1.4-2.54-5.4-1.32-10.07,6s-6.57,15.88-5.44,19,16.22,6.89,16.22,6.89l3.11-7.89Z"/><g class="cls-21"><path class="cls-17" d="M310.69,184c-1.4-2.54-5.4-1.32-10.07,6s-6.57,15.88-5.44,19,16.22,6.89,16.22,6.89l3.11-7.89Z"/></g><path class="cls-4" d="M310.69,184c-1.4-2.54-5.4-1.32-10.07,6s-6.57,15.88-5.44,19,16.22,6.89,16.22,6.89l3.11-7.89Z"/><path class="cls-6" d="M317.07,199.33l-8.66-19s-5.64-8.07-6.75-11.15-13.52-5.47-16.32-5.47-5.77,5-5.77,5h5.83s2.18,2.29,2.45,3.65-7.71,8.17-8.85,8.82a42.41,42.41,0,0,0-7.32,4c-3.17,2.35-10.31,4.18-11.64,6.29s-.39,2.5.56,3a8.16,8.16,0,0,0,2.55.6s-.57,2.4,0,3.65,3.9,1.14,3.9,1.14a2.26,2.26,0,0,0,1.78,2,15.37,15.37,0,0,1,2.85.76s6.87,1.16,9.94.51,12.42-5.63,14.71-5.42,8.59,14.86,8.59,14.86S315.7,210.79,317.07,199.33Z"/><path class="cls-4" d="M263.15,195.11s9-1.94,9.56-2.62,6.86-2.63,6.86-2.63"/><path class="cls-4" d="M267.05,199.9s5-1,6.78-1.25,8.93-3.54,8.93-3.54"/><path class="cls-4" d="M271.68,202.67s7.09-.6,8.58-1.29,5.81-2,5.81-2"/><path class="cls-1" d="M376.45,191c-10.52,6.94-16.88,23.68-16.88,23.68l-16.42,30.55s-13.81-34-17.72-34.43L310.69,184s1.74,15.7-4.4,22.37S295.18,209,295.18,209l4.58,12.66,1.15,6s19.37,58.12,25.7,61.72,20.75,5.21,33-3.74,33.12-42.78,35.1-53.85"/><path class="cls-4" d="M319.5,214.8c.53-.8,1-1.62,1.47-2.47"/><path class="cls-4" d="M307.08,222.74A16.73,16.73,0,0,0,318,216.86"/><path class="cls-4" d="M299.76,221.66a14.83,14.83,0,0,0,5.16,1.15"/><path class="cls-4" d="M347.46,258.68a15,15,0,0,1-.34,4.17"/><path class="cls-4" d="M343.15,245.21a33.62,33.62,0,0,1,4,11"/><path class="cls-4" d="M352.23,250.68a23.45,23.45,0,0,0-6.39-5.47"/><path class="cls-4" d="M378.19,206.35a19.87,19.87,0,0,0-16.57,7.21"/><path class="cls-4" d="M388,232.19a8.65,8.65,0,0,1-5.18-.84"/><path class="cls-4" d="M399.06,219.8c-1.45,7-5.37,10.57-8.78,11.81"/><path class="cls-4" d="M355.5,179.94s-15.34,3.56-23.89-2.15"/><path class="cls-4" d="M300.49,273.8s8.35,23.6,27.69,27.6"/><path class="cls-4" d="M356.36,306.51c-1,.75-2,1.44-3.1,2.1"/><line class="cls-4" x1="249.69" y1="20.7" x2="249.69" y2="41.45"/><line class="cls-4" x1="249.69" y1="8.25" x2="249.69" y2="16.55"/><line class="cls-4" x1="249.69" y1="0.5" x2="249.69" y2="4.94"/><polyline class="cls-4" points="245.77 39.02 249.69 43.88 253.61 39.02"/><line class="cls-4" x1="260.06" y1="124.59" x2="260.06" y2="145.34"/><line class="cls-4" x1="260.06" y1="112.14" x2="260.06" y2="120.44"/><line class="cls-4" x1="260.06" y1="104.39" x2="260.06" y2="108.83"/><polyline class="cls-4" points="256.14 142.91 260.06 147.76 263.98 142.91"/><line class="cls-4" x1="280.56" y1="62.15" x2="280.56" y2="82.9"/><line class="cls-4" x1="280.56" y1="49.71" x2="280.56" y2="58"/><line class="cls-4" x1="280.56" y1="41.95" x2="280.56" y2="46.39"/><polyline class="cls-4" points="276.64 80.48 280.56 85.33 284.48 80.48"/><path class="cls-22" d="M100,290.71c-.32,13,6.13,12,6.13,12a26.14,26.14,0,0,1,2.42-4.28c3.38-5.19,8.55-12.47,6.61-16.78a62.67,62.67,0,0,0-4.32-7.44c-3.45-5.29-7.42-10.65-7.42-10.65l17.21-2.85s12.26,5.07,21.93,5.66l.75,0c8.84.17,7.41-6.76,7.41-9,0-.95-2.39-2.7-5.18-4.42-4-2.44-8.82-4.85-8.82-4.85l2.62-5.42a15.5,15.5,0,0,0,4.57.25c6.7-.73,5.78-7.33,4.69-10.2-.31-.83-1.85-2.07-4-3.51-6.89-4.54-20.08-10.86-20.08-10.86H105.15l-19,51.94S100.31,277.69,100,290.71Z"/><path class="cls-23" d="M100,290.71c-.32,13,6.13,12,6.13,12a26.14,26.14,0,0,1,2.42-4.28c3.38-5.19,8.55-12.47,6.61-16.78a62.67,62.67,0,0,0-4.32-7.44c-3.45-5.29-7.42-10.65-7.42-10.65l17.21-2.85s12.26,5.07,21.93,5.66l.75,0c8.84.17,7.41-6.76,7.41-9,0-.95-2.39-2.7-5.18-4.42-4-2.44-8.82-4.85-8.82-4.85l2.62-5.42a15.5,15.5,0,0,0,4.57.25c6.7-.73,5.78-7.33,4.69-10.2-.31-.83-1.85-2.07-4-3.51-6.89-4.54-20.08-10.86-20.08-10.86H105.15l-19,51.94S100.31,277.69,100,290.71Z"/><path class="cls-23" d="M100,290.71c-.32,13,6.13,12,6.13,12a26.14,26.14,0,0,1,2.42-4.28,19.72,19.72,0,0,1-.35-3.79c.09-4.46,3.74-13,3.74-13l-3.74-5.92a7.81,7.81,0,0,1,2.64-1.52c-3.45-5.29-7.42-10.65-7.42-10.65l17.21-2.85s12.26,5.07,21.93,5.66l.75,0c-.56-4.85,1.36-11,2.23-13.41-4-2.44-8.82-4.85-8.82-4.85l2.62-5.42a15.5,15.5,0,0,0,4.57.25c-.88-4.23,0-10.1.67-13.71-6.89-4.54-20.08-10.86-20.08-10.86H105.15l-19,51.94S100.31,277.69,100,290.71Z"/><path class="cls-4" d="M105.15,218.37H124.5s22.8,10.94,24.09,14.36,2.34,12.05-9.26,10l-2.62,5.41s14,7,14,9.27,1.51,9.54-8.16,9-21.92-5.65-21.92-5.65l-17.22,2.85s9.16,12.35,11.73,18.09-7.41,16.72-9,21.06c0,0-6.45,1.05-6.13-12s-13.86-20.4-13.86-20.4"/><path class="cls-4" d="M109.74,279.3s-4.85-2.71-7.49,2.33"/><rect class="cls-1" x="63.88" y="86.38" width="114.37" height="198.21" rx="9.26"/><path class="cls-12" d="M174.7,94.42V277.06a4.13,4.13,0,0,1-4.13,4.14h-99a4.13,4.13,0,0,1-4.13-4.14V94.42a4.13,4.13,0,0,1,4.13-4.13h22a3.47,3.47,0,0,1,3.25,2.26l.93,2.51A3.47,3.47,0,0,0,101,97.32h40.15a3.47,3.47,0,0,0,3.25-2.26l.93-2.51a3.47,3.47,0,0,1,3.25-2.26h22A4.13,4.13,0,0,1,174.7,94.42Z"/><path class="cls-1" d="M135.57,236.09h-29a9.83,9.83,0,0,1-9.83-9.83h0a9.84,9.84,0,0,1,9.83-9.84h29a9.84,9.84,0,0,1,9.83,9.84h0A9.83,9.83,0,0,1,135.57,236.09Z"/><path class="cls-6" d="M111.59,92.35a1.71,1.71,0,1,1-1.71-1.71A1.71,1.71,0,0,1,111.59,92.35Z"/><path class="cls-6" d="M134,92.35a1.07,1.07,0,1,1-1.07-1.07A1.07,1.07,0,0,1,134,92.35Z"/><path class="cls-6" d="M127.87,93H115.05a.6.6,0,0,1-.6-.6h0a.61.61,0,0,1,.6-.61h12.82a.61.61,0,0,1,.6.61h0A.6.6,0,0,1,127.87,93Z"/><rect class="cls-6" x="72.72" y="107.69" width="96.69" height="98.69" rx="12.49"/><line class="cls-4" x1="111.31" y1="149.44" x2="111.31" y2="134.61"/><line class="cls-4" x1="111.31" y1="158.34" x2="111.31" y2="152.41"/><line class="cls-4" x1="111.31" y1="163.89" x2="111.31" y2="160.71"/><polyline class="cls-4" points="114.11 136.34 111.31 132.88 108.51 136.34"/><line class="cls-4" x1="130.82" y1="143.94" x2="130.82" y2="129.11"/><line class="cls-4" x1="130.82" y1="152.84" x2="130.82" y2="146.91"/><line class="cls-4" x1="130.82" y1="158.39" x2="130.82" y2="155.21"/><polyline class="cls-4" points="133.62 130.84 130.82 127.38 128.02 130.84"/><line class="cls-4" x1="120.62" y1="133.98" x2="120.62" y2="119.15"/><line class="cls-4" x1="120.62" y1="142.88" x2="120.62" y2="136.95"/><line class="cls-4" x1="120.62" y1="148.43" x2="120.62" y2="145.25"/><polyline class="cls-4" points="123.42 120.88 120.62 117.41 117.82 120.88"/><circle class="cls-1" cx="121.06" cy="154.81" r="15.51" transform="translate(-57.29 237.34) rotate(-76.81)"/><path class="cls-12" d="M120,146.56v-1.24h2.16v1.24c1.88.39,2.84,1.83,2.84,4.11v.53h-2.5v-.7c0-1.2-.48-1.66-1.32-1.66s-1.32.46-1.32,1.66.48,2,2.26,3.46c2.16,1.72,2.9,3,2.9,5,0,2.28-1,3.75-2.86,4.13v1.23H120v-1.23c-1.89-.38-2.85-1.85-2.85-4.13v-1.15h2.49v1.32c0,1.2.53,1.63,1.37,1.63s1.37-.43,1.37-1.63-.48-2.06-2.26-3.45c-2.16-1.71-2.9-3-2.9-5C117.2,148.41,118.14,147,120,146.56Z"/><path class="cls-12" d="M109,179.85v-.47h.82v.47a1.39,1.39,0,0,1,1.07,1.56v.2h-1v-.26c0-.46-.18-.63-.5-.63s-.5.17-.5.63.18.77.86,1.31a2.25,2.25,0,0,1,1.1,1.89,1.39,1.39,0,0,1-1.08,1.56v.47H109v-.47a1.39,1.39,0,0,1-1.09-1.56v-.44h1v.5c0,.46.2.62.52.62s.52-.16.52-.62-.18-.78-.86-1.31a2.24,2.24,0,0,1-1.1-1.89A1.39,1.39,0,0,1,109,179.85Z"/><path class="cls-12" d="M112.18,180.59a1,1,0,0,0,1.1-.8H114v6.38h-1V181.3h-.77Z"/><path class="cls-12" d="M115.08,181.32a1.53,1.53,0,1,1,3,0v3.32a1.53,1.53,0,1,1-3,0Zm1,3.38c0,.46.2.63.52.63s.51-.17.51-.63v-3.44c0-.46-.2-.63-.51-.63s-.52.17-.52.63Z"/><path class="cls-12" d="M118.69,181.32a1.53,1.53,0,1,1,3,0v3.32a1.53,1.53,0,1,1-3,0Zm1,3.38c0,.46.2.63.52.63s.51-.17.51-.63v-3.44c0-.46-.2-.63-.51-.63s-.52.17-.52.63Z"/><path class="cls-12" d="M122.3,181.32a1.53,1.53,0,1,1,3,0v3.32a1.53,1.53,0,1,1-3,0Zm1,3.38c0,.46.2.63.52.63s.51-.17.51-.63v-3.44c0-.46-.2-.63-.51-.63s-.52.17-.52.63Z"/><path class="cls-12" d="M127,185.2v1h-1v-1Z"/><path class="cls-12" d="M127.61,181.32a1.52,1.52,0,1,1,3,0v3.32a1.52,1.52,0,1,1-3,0Zm1,3.38c0,.46.2.63.52.63s.52-.17.52-.63v-3.44c0-.46-.2-.63-.52-.63s-.52.17-.52.63Z"/><path class="cls-12" d="M131.22,181.32a1.52,1.52,0,1,1,3,0v3.32a1.52,1.52,0,1,1-3,0Zm1,3.38c0,.46.2.63.52.63s.52-.17.52-.63v-3.44c0-.46-.2-.63-.52-.63s-.52.17-.52.63Z"/><path class="cls-12" d="M103.46,192.07h1v6.37h-1Z"/><path class="cls-12" d="M105.19,192.07h1.59c1,0,1.49.55,1.49,1.57v3.23c0,1-.49,1.57-1.49,1.57h-1.59Zm1,.91v4.55h.57c.32,0,.51-.16.51-.62V193.6c0-.46-.19-.62-.51-.62Z"/><path class="cls-12" d="M109.79,197.48v1h-1v-1Z"/><path class="cls-12" d="M112,192.91c-.32,0-.52.17-.52.62v.69h-.94v-.62c0-1,.51-1.6,1.49-1.6s1.49.58,1.49,1.6a3.48,3.48,0,0,1-1.24,2.52c-.59.64-.75.94-.75,1.28a.57.57,0,0,0,0,.13h1.89v.91h-2.89v-.78a2.74,2.74,0,0,1,1-2,2.69,2.69,0,0,0,1-2C112.5,193.06,112.3,192.91,112,192.91Z"/><path class="cls-12" d="M114.75,192.87a1,1,0,0,0,1.1-.8h.67v6.37h-1v-4.86h-.77Z"/><path class="cls-12" d="M119.18,198.52a1.44,1.44,0,0,1-1.57-1.61v-.5a1.38,1.38,0,0,1,.62-1.32v0a1.29,1.29,0,0,1-.62-1.27v-.2a1.57,1.57,0,1,1,3.13,0v.2a1.31,1.31,0,0,1-.62,1.27v0a1.38,1.38,0,0,1,.62,1.32v.5A1.44,1.44,0,0,1,119.18,198.52Zm-.57-4.53c0,.51.24.67.57.67s.56-.16.56-.67v-.36c0-.57-.25-.72-.56-.72s-.57.15-.57.72Zm.57,3.62c.31,0,.55-.16.56-.72v-.59c0-.51-.21-.72-.56-.72s-.57.21-.57.72v.59C118.61,197.45,118.86,197.61,119.18,197.61Z"/><path class="cls-12" d="M122,192.87a1,1,0,0,0,1.1-.8h.67v6.37h-1v-4.86H122Z"/><path class="cls-12" d="M127.9,196.86c0,1.07-.49,1.66-1.53,1.66s-1.5-.59-1.5-1.61v-.16h.95V197c0,.45.2.63.52.63s.56-.18.56-.79v-1.15h0a.92.92,0,0,1-.91.55c-.74,0-1.11-.52-1.11-1.46V193.6a1.52,1.52,0,1,1,3,0Zm-1-2.18v-1.15c0-.45-.2-.61-.52-.61s-.52.16-.52.61v1.15c0,.46.2.63.52.63S126.9,195.14,126.9,194.68Z"/><path class="cls-12" d="M129.47,196.39V197c0,.45.2.62.52.62s.52-.17.52-.62v-1.4c0-.46-.2-.63-.52-.63s-.52.17-.52.63v.19h-.95l.18-3.7h2.64V193H129.6l-.09,1.52h0a.94.94,0,0,1,.87-.46c.73,0,1.11.52,1.11,1.45v1.42c0,1-.51,1.61-1.5,1.61s-1.49-.59-1.49-1.61v-.52Z"/><path class="cls-12" d="M132.11,193.65c0-1.07.49-1.65,1.53-1.65a1.4,1.4,0,0,1,1.5,1.6v.16h-.95v-.23c0-.45-.2-.62-.52-.62s-.56.17-.56.78v1.16h0a.93.93,0,0,1,.91-.56c.74,0,1.12.52,1.12,1.46v1.16a1.53,1.53,0,1,1-3,0Zm1,2.18V197c0,.45.21.62.52.62s.52-.17.52-.62v-1.15c0-.45-.2-.63-.52-.63S133.11,195.38,133.11,195.83Z"/><path class="cls-12" d="M138.73,192.07v.87l-1.48,5.5h-1l1.47-5.46h-2v-.91Z"/><path class="cls-12" d="M119.79,187.77H121v.34h-.4v2.07h-.38v-2.07h-.4Z"/><path class="cls-12" d="M121.1,188.35a.54.54,0,0,1,.58-.61.53.53,0,0,1,.57.61v1.25a.53.53,0,0,1-.57.61.54.54,0,0,1-.58-.61Zm.38,1.28c0,.17.08.23.2.23s.19-.06.19-.23v-1.31c0-.17-.07-.24-.19-.24s-.2.07-.2.24Z"/><path class="cls-12" d="M113,221c1.44,0,2.17.86,2.17,2.36v.29h-1.39v-.39c0-.66-.27-.92-.74-.92s-.73.26-.73.92.29,1.2,1.25,2c1.24,1.08,1.62,1.86,1.62,2.93,0,1.5-.74,2.36-2.19,2.36s-2.2-.86-2.2-2.36v-.58h1.4v.67c0,.67.29.91.76.91s.76-.24.76-.91-.29-1.19-1.26-2a3.62,3.62,0,0,1-1.61-2.93C110.87,221.84,111.6,221,113,221Z"/><path class="cls-12" d="M117.53,225h2v1.34h-2v2.74h2.54v1.34h-4v-9.37h4v1.34h-2.54Z"/><path class="cls-12" d="M122.32,223.67h0v6.79H121v-9.37h1.85l1.49,5.61h0v-5.61h1.31v9.37h-1.51Z"/><path class="cls-12" d="M126.69,221.09H129c1.47,0,2.19.82,2.19,2.31v4.74c0,1.5-.72,2.32-2.19,2.32h-2.33Zm1.47,1.34v6.69H129c.47,0,.75-.24.75-.91v-4.87c0-.67-.28-.91-.75-.91Z"/><path class="cls-4" d="M55.18,202.26s6.44,2,8.7,7.6"/><path class="cls-22" d="M26,379.9c.71-12.46,1.19-25.19,1.81-35.44,1.29-21.24,2.26-35.5,4.19-50s1.61-36.43,2.58-44.08,3.85-9.28,6.13-18.37,4.32-27.2,8.06-29.75,15.15-7.32,15.15-7.32v51.29c6.77,10.41,14.83,13,14.83,13,5.16-14.93,4.52-20.85,9.67-26.34s8.88-12.64,17-9.65c3.86,1.43,5.92,2.88,4,16s-5.8,17.18-5.8,17.18c-.65,4.47.32,17.46,1.93,24.11s-4.51,24.3-7.41,35.59-18.38,34.15-18.38,34.15A197.18,197.18,0,0,0,80.32,376c.12,1.21.27,2.51.44,3.87l1,35.11L26,414Z"/><path class="cls-23" d="M108.19,227.07a3.13,3.13,0,0,1,0-2.32,8.16,8.16,0,0,0-2.83-1.53c-8.1-3-11.82,4.18-17,9.65a16.38,16.38,0,0,0-1.29,1.56c4.67-1.76,10.79-1.73,13.25,1.69C103.43,240.4,109.74,232.66,108.19,227.07Z"/><path class="cls-23" d="M73.21,367.32l-2.56,9.56s3.6-3.52,9-12.07c-.26-8.33.06-14.6.06-14.6s15.47-22.87,18.38-34.15,9-28.95,7.41-35.59-2.57-19.64-1.93-24.11a13.22,13.22,0,0,0,1.87-3.05,5.26,5.26,0,0,0-2.42-1.44,53.4,53.4,0,0,0-3.14,22.71c1,12.89-1.21,14-5.48,30.73S83,341.06,79.68,344.46,74.9,363.21,73.21,367.32Z"/><path class="cls-23" d="M67.1,254.37s-5.08.79-7.13,2c0,0,9.93,2.59,10.57,5.36s2.77,5.63,6.55,2.25c0,0,.19-2.11.58-5.17-2.39-1.07-8.48-4.42-13.79-12.57V194.94s-5.64,2.36-10.29,4.64c3.45.46,7,1.52,8.35,3.85a10.41,10.41,0,0,1-5.8,6.43c-3.67,1.64,0,29.32,0,29.32s-6,1.49-8,7c0,0,9.89,1,14,4.15A62.83,62.83,0,0,1,67.1,254.37Z"/><path class="cls-23" d="M27.77,344.46c-.51,8.3-.91,18.23-1.42,28.32,1.27-19.19,5.13-52.13,5.13-52.13s3.45,12.18,3.71,10.89c.76-3.82-1.62-25.37-1.41-33.05.1-3.48-.15-12.4-.46-21.11-.28,6-.68,12-1.36,17.08C30,309,29.06,323.22,27.77,344.46Z"/><path class="cls-4" d="M26,416.33V379.9c.71-12.46,1.19-25.19,1.81-35.44,1.29-21.24,2.26-35.5,4.19-50s1.61-36.43,2.58-44.08,3.85-9.28,6.13-18.37,4.32-27.2,8.06-29.75,15.15-7.32,15.15-7.32v51.29c6.77,10.41,14.83,13,14.83,13,5.16-14.93,4.52-20.85,9.67-26.34s8.88-12.64,17-9.65c3.86,1.43,5.92,2.88,4,16s-5.8,17.18-5.8,17.18c-.65,4.47.32,17.46,1.93,24.11s-4.51,24.3-7.41,35.59-18.38,34.15-18.38,34.15A197.18,197.18,0,0,0,80.32,376c.12,1.21.27,2.51.44,3.87,0,0,.52,22.67,3,36.43"/><path class="cls-4" d="M78.71,259.21s-1.61,7.2-4.83,8.81S66,268,66,268"/><path class="cls-4" d="M63.88,246.23s-3.22-7.17-13.54-.95"/><path class="cls-4" d="M63.88,217.27s-.64-3.8-6-4.77"/><path class="cls-4" d="M79.68,350.21c-6.13,7.76-5,15.18-7.32,19.05s-2,17.73-2,17.73"/><path class="cls-4" d="M35.19,275.71v27a134.1,134.1,0,0,0,2.25,23"/><path class="cls-4" d="M103.54,256.36s0-4.6-1.29-6"/><path class="cls-4" d="M100,241.88s-2.85-9.62-11.24-5.42"/><path class="cls-4" d="M74.16,256.84c-6.23.13-12.54-2.63-16.24.73"/><path class="cls-12" d="M23.37,367.54h1.68a2,2,0,0,1,2,2V403.8a2,2,0,0,1-2,2H23.37a0,0,0,0,1,0,0V367.54A0,0,0,0,1,23.37,367.54Z"/><path class="cls-12" d="M23.37,372.5s29.56-7.73,57.93,1.08a2.16,2.16,0,0,1,1.51,2.06v18.15a1.08,1.08,0,0,1-1.28,1.07c-6.09-1.1-32.87-5.33-56.7.24Z"/><path class="cls-1" d="M24.65,372.16v-4.09a2.43,2.43,0,0,0-2.43-2.44H18.9a2.32,2.32,0,0,0-2,1.19L14,372.16v31.25l2.89,3.51a2.28,2.28,0,0,0,1.77.84h3.59a2.43,2.43,0,0,0,2.43-2.44Z"/><path class="cls-1" d="M22.56,370.14l6.75-1.25a1.3,1.3,0,0,1,1.54,1.28v3.89l-2.24,1.66v12.66h2.24V395a1.6,1.6,0,0,1-1.29,1.57l-6.4,1.33a1.55,1.55,0,0,1-1.87-1.52v-24.7A1.55,1.55,0,0,1,22.56,370.14Z"/><path class="cls-4" d="M22.81,396.16l5.5-1.26A.9.9,0,0,0,29,394v-4.13"/><polyline class="cls-4" points="26.77 388.18 26.77 374.63 28.97 372.95 28.97 370.41"/><line class="cls-4" x1="17.83" y1="368.1" x2="17.83" y2="404.3"/><path class="cls-22" d="M44.53,382.23h0a1,1,0,0,1-1-1v-2.16a1,1,0,0,1,1-1h0a1,1,0,0,1,1,1v2.16A1,1,0,0,1,44.53,382.23Z"/><path class="cls-22" d="M59.76,382.63h0a1,1,0,0,1-1-1v-2.16a1,1,0,0,1,1-1h0a1,1,0,0,1,1,1v2.16A1,1,0,0,1,59.76,382.63Z"/><path class="cls-22" d="M73.31,384.3h0a1,1,0,0,1-1-1v-2.16a1,1,0,0,1,1-1h0a1,1,0,0,1,1,1v2.16A1,1,0,0,1,73.31,384.3Z"/></g></g></svg>